<svg width="86" height="141" xmlns="http://www.w3.org/2000/svg" xmlns:svg="http://www.w3.org/2000/svg" xmlns:xlink="http://www.w3.org/1999/xlink">
 <defs>
  <rect rx="4" height="140.7" width="86" y="0.87" x="0.87" id="a"/>
 </defs>
 <g class="layer">
  <title>Layer 1</title>
  <g id="svg_2">
   <mask transform="translate(-1,0) translate(1,0) translate(-1,0) translate(1,0) translate(-1,0) translate(-1,0) translate(-1,0) translate(-1,0) translate(1,0) translate(1,0) translate(1,0) translate(1,0) translate(0,0.09090909361839294) translate(0,-0.09090909361839294) translate(0,-0.09090909361839294) translate(0,-0.09090909361839294) translate(0,-0.09090909361839294) translate(0,-0.09090909361839294) translate(0,-0.09090909361839294) translate(0,-0.09090909361839294) translate(0,-0.09090909361839294) translate(0,-0.09090909361839294) translate(0,-0.09090909361839294) translate(0,-0.09090909361839294) translate(0,-0.09090909361839294) translate(0,-0.09090909361839294) translate(2.3636362552642822,0.3636363744735718) translate(-2.454545497894287,0.9090909361839294) translate(0.12999999523162842,0.12999999523162842) translate(0,1) translate(0,-1) translate(1,0) translate(1,0) translate(-1,0) translate(-1,0) translate(-1,0) translate(1,0) translate(-1,0) translate(-1,0) translate(-1,0) translate(-1,0) translate(-1,0) translate(15,-54) translate(-10,54) translate(-1,0) translate(1,0) translate(0,-1) translate(0,-1) translate(0,1) translate(0,1) translate(-1,-1) " id="b">
    <use id="svg_3" xlink:href="#a"/>
   </mask>
   <use x="-0.96091" y="-0.68818" id="svg_4" xlink:href="#a" fill="#4986F5"/>
   <g id="svg_5" fill="#5F94F6" mask="url(#b)">
    <path stroke-width="5" stroke="#000000" fill="none" id="svg_6" d="m-2.42091,11.41182l4.7,-4.7l-4.7,-4.68l-4.7,4.68l4.7,4.7m2.82,2.8l4.7,4.7l4.7,-4.7l-4.7,-4.68l-4.7,4.68m12.21,-2.8l4.7,-4.7l-4.7,-4.68l-4.7,4.68l4.7,4.7m2.83,2.8l4.69,4.7l4.7,-4.7l-4.7,-4.68l-4.7,4.68m15.04,0l4.7,4.7l4.7,-4.7l-4.7,-4.68l-4.7,4.68m-2.83,-2.8l4.7,-4.7l-4.7,-4.68l-4.7,4.68l4.7,4.7m15.04,0l4.7,-4.7l-4.7,-4.68l-4.7,4.68l4.7,4.7m2.82,2.8l4.7,4.7l4.7,-4.7l-4.7,-4.68l-4.7,4.68m12.21,-2.8l4.7,-4.7l-4.7,-4.68l-4.7,4.68l4.7,4.7m2.83,2.8l4.7,4.7l4.69,-4.7l-4.7,-4.68l-4.7,4.68m19.73,-4.68l-4.7,4.68l4.7,4.7l4.7,-4.7l-4.7,-4.68m-7.52,1.88l4.7,-4.7l-4.7,-4.68l-4.69,4.68l4.7,4.7m-79.87,10.3l4.7,4.7l4.7,-4.7l-4.7,-4.68l-4.7,4.69m15.04,-0.01l4.7,4.7l4.7,-4.7l-4.7,-4.68l-4.7,4.69m15.02,-0.01l4.7,4.7l4.7,-4.7l-4.7,-4.68l-4.7,4.69m15.04,-0.01l4.7,4.7l4.7,-4.7l-4.7,-4.68l-4.7,4.69m15.04,-0.01l4.7,4.7l4.7,-4.7l-4.7,-4.68l-4.7,4.69m19.72,-4.69l-4.69,4.69l4.7,4.68l4.7,-4.68l-4.7,-4.7m-75.17,24.39l4.7,-4.7l-4.7,-4.68l-4.7,4.69l4.7,4.69m2.82,-12.2l4.7,4.7l4.7,-4.7l-4.7,-4.68l-4.7,4.69m15.04,-0.01l4.69,4.7l4.7,-4.7l-4.7,-4.68l-4.7,4.69m15.04,-0.01l4.7,4.7l4.7,-4.7l-4.7,-4.68l-4.7,4.69m15.03,-0.01l4.7,4.7l4.7,-4.7l-4.7,-4.68l-4.7,4.69m19.74,-4.69l-4.7,4.69l4.7,4.68l4.69,-4.68l-4.7,-4.7m15.03,0.01l-4.7,4.69l4.7,4.68l4.7,-4.68l-4.7,-4.7m-75.16,24.39l4.7,-4.7l-4.7,-4.68l-4.7,4.69l4.7,4.69m2.82,-12.2l4.7,4.7l4.7,-4.7l-4.7,-4.68l-4.7,4.69m7.52,7.49l4.69,4.7l4.7,-4.7l-4.7,-4.68l-4.7,4.69m15.04,-0.01l4.7,4.7l4.7,-4.7l-4.7,-4.68l-4.7,4.69m-7.53,-7.51l4.7,4.7l4.7,-4.7l-4.7,-4.68l-4.7,4.69m15.04,-0.01l4.7,4.7l4.7,-4.7l-4.7,-4.68l-4.7,4.69m7.52,7.49l4.7,4.7l4.7,-4.7l-4.7,-4.68l-4.7,4.69m7.52,-7.51l4.7,4.7l4.7,-4.7l-4.7,-4.68l-4.7,4.69m12.22,2.81l-4.7,4.69l4.7,4.69l4.69,-4.7l-4.7,-4.68m15.03,0l-4.7,4.69l4.7,4.69l4.7,-4.7l-4.7,-4.68m-7.52,-7.5l-4.69,4.69l4.7,4.69l4.7,-4.7l-4.7,-4.68m-75.17,24.38l4.7,-4.7l-4.7,-4.68l-4.7,4.69l4.7,4.69m10.34,-4.7l4.7,4.7l4.7,-4.7l-4.7,-4.68l-4.7,4.69m15.02,-0.01l4.7,4.7l4.7,-4.7l-4.7,-4.68l-4.7,4.69m15.04,-0.01l4.7,4.7l4.7,-4.7l-4.7,-4.68l-4.7,4.69m19.73,-4.69l-4.7,4.69l4.7,4.69l4.7,-4.7l-4.7,-4.68m15.03,0l-4.69,4.69l4.7,4.69l4.7,-4.7l-4.7,-4.68m-75.17,24.38l4.7,-4.69l-4.7,-4.69l-4.7,4.69l4.7,4.69m7.52,-7.5l4.7,-4.69l-4.7,-4.69l-4.7,4.69l4.7,4.69m10.34,-4.69l4.69,4.69l4.7,-4.69l-4.7,-4.69l-4.7,4.69m15.04,0l4.7,4.69l4.7,-4.69l-4.7,-4.69l-4.7,4.69m24.43,0l-4.7,-4.69l-4.7,4.69l4.7,4.69l4.7,-4.69m10.34,-4.69l-4.7,4.69l4.7,4.69l4.69,-4.69l-4.7,-4.69m15.03,0l-4.7,4.69l4.7,4.69l4.7,-4.69l-4.7,-4.69m-75.16,24.38l4.7,-4.69l-4.7,-4.69l-4.7,4.7l4.7,4.68m7.51,-7.5l4.7,-4.69l-4.7,-4.69l-4.7,4.69l4.7,4.69m7.52,7.5l4.7,-4.69l-4.7,-4.69l-4.7,4.7l4.7,4.68m19.73,-4.69l-4.7,-4.69l-4.7,4.7l4.7,4.68l4.7,-4.69m-16.92,-7.5l4.7,4.69l4.7,-4.69l-4.7,-4.69l-4.7,4.69m15.04,0l4.7,4.69l4.7,-4.69l-4.7,-4.69l-4.7,4.69m16.92,7.5l-4.7,-4.69l-4.7,4.7l4.7,4.68l4.7,-4.69m2.81,-12.19l-4.7,4.69l4.7,4.69l4.7,-4.69l-4.7,-4.69m7.53,7.5l-4.7,4.7l4.7,4.68l4.69,-4.69l-4.7,-4.69m15.03,0l-4.7,4.7l4.7,4.68l4.7,-4.69l-4.7,-4.69m-7.52,-7.5l-4.69,4.69l4.7,4.69l4.7,-4.69l-4.7,-4.69m-75.17,24.38l4.7,-4.69l-4.7,-4.69l-4.7,4.7l4.7,4.68m15.03,0l4.7,-4.69l-4.7,-4.69l-4.7,4.7l4.7,4.68m19.73,-4.69l-4.7,-4.69l-4.7,4.7l4.7,4.68l4.7,-4.69m15.04,0l-4.7,-4.69l-4.7,4.7l4.7,4.68l4.7,-4.69m15.03,0l-4.7,-4.69l-4.7,4.7l4.7,4.68l4.7,-4.69m10.33,-4.69l-4.69,4.7l4.7,4.68l4.7,-4.69l-4.7,-4.69m-75.17,24.38l4.7,-4.69l-4.7,-4.68l-4.7,4.68l4.7,4.7m7.52,-7.51l4.7,-4.69l-4.7,-4.69l-4.7,4.7l4.7,4.68m19.73,-4.69l-4.7,-4.69l-4.7,4.7l4.7,4.68l4.7,-4.69m15.03,0l-4.7,-4.69l-4.7,4.7l4.7,4.68l4.7,-4.69m15.04,0l-4.7,-4.69l-4.7,4.7l4.7,4.68l4.7,-4.69m15.03,0l-4.7,-4.69l-4.7,4.7l4.7,4.68l4.7,-4.69m10.33,-4.69l-4.7,4.7l4.7,4.68l4.7,-4.69l-4.7,-4.69m-75.16,24.38l4.7,-4.69l-4.7,-4.68l-4.7,4.68l4.7,4.7m7.51,-7.51l4.7,-4.69l-4.7,-4.68l-4.7,4.68l4.7,4.7m12.22,2.8l-4.7,-4.68l-4.7,4.68l4.7,4.7l4.7,-4.7m15.03,0l-4.7,-4.68l-4.7,4.68l4.7,4.7l4.7,-4.7m-7.52,-7.5l-4.7,-4.68l-4.7,4.68l4.7,4.7l4.7,-4.7m15.04,0l-4.7,-4.68l-4.7,4.68l4.7,4.7l4.7,-4.7m7.52,7.5l-4.7,-4.68l-4.7,4.68l4.7,4.7l4.7,-4.7m7.51,-7.5l-4.7,-4.68l-4.7,4.68l4.7,4.7l4.7,-4.7m7.52,7.5l-4.7,-4.68l-4.7,4.68l4.7,4.7l4.7,-4.7m10.33,-4.68l-4.7,4.68l4.7,4.7l4.7,-4.7l-4.7,-4.68m-7.52,-7.5l-4.69,4.68l4.7,4.7l4.7,-4.7l-4.7,-4.68m-75.17,24.37l4.7,-4.68l-4.7,-4.7l-4.7,4.7l4.7,4.68m19.73,-4.68l-4.7,-4.7l-4.7,4.7l4.7,4.68l4.7,-4.68m15.03,0l-4.7,-4.7l-4.7,4.7l4.7,4.68l4.7,-4.68m15.04,0l-4.7,-4.7l-4.7,4.7l4.7,4.68l4.7,-4.68m15.03,0l-4.7,-4.7l-4.7,4.7l4.7,4.68l4.7,-4.68m15.03,0l-4.7,-4.7l-4.69,4.7l4.7,4.68l4.7,-4.68m-79.87,19.68l4.7,-4.68l-4.7,-4.7l-4.7,4.7l4.7,4.69m12.21,-12.19l-4.7,-4.7l-4.7,4.7l4.7,4.68l4.7,-4.68m15.04,0l-4.7,-4.7l-4.7,4.7l4.7,4.68l4.7,-4.68m15.03,0l-4.7,-4.7l-4.7,4.7l4.7,4.68l4.7,-4.68m15.04,0l-4.7,-4.7l-4.7,4.7l4.7,4.68l4.7,-4.68m15.03,0l-4.7,-4.7l-4.7,4.7l4.7,4.68l4.7,-4.68m15.03,0l-4.7,-4.7l-4.7,4.7l4.7,4.68l4.7,-4.68m-79.86,10.31l-4.7,4.69l4.7,4.69l4.7,-4.7l-4.7,-4.68m12.21,-2.81l-4.7,-4.7l-4.7,4.7l4.7,4.69l4.7,-4.7m2.82,2.82l-4.7,4.69l4.7,4.69l4.7,-4.7l-4.7,-4.68m15.03,0l-4.7,4.69l4.7,4.69l4.7,-4.7l-4.7,-4.68m-2.82,-2.81l-4.7,-4.7l-4.7,4.7l4.7,4.69l4.7,-4.7m15.04,0.01l-4.7,-4.7l-4.7,4.7l4.7,4.69l4.7,-4.7m2.82,2.82l-4.7,4.69l4.7,4.69l4.7,-4.7l-4.7,-4.68m12.21,-2.81l-4.7,-4.7l-4.7,4.7l4.7,4.69l4.7,-4.7m2.83,2.82l-4.7,4.69l4.7,4.69l4.69,-4.7l-4.7,-4.68m15.03,0l-4.7,4.69l4.7,4.69l4.7,-4.7l-4.7,-4.68m-2.82,-2.81l-4.7,-4.7l-4.69,4.7l4.7,4.69l4.7,-4.7m9.39,-123.76l-3.76,3.75l3.76,3.75l0,-7.5m0,15.01l-3.76,3.75l3.76,3.75l0,-7.5m0,15l-3.76,3.75l3.76,3.75l0,-7.5m0,15l-3.76,3.75l3.76,3.75l0,-7.5m0,15l-3.76,3.75l3.76,3.75l0,-7.5m0,15l-3.76,3.75l3.76,3.75l0,-7.5m0,15l-3.76,3.75l3.76,3.75l0,-7.5m0,15.01l-3.76,3.75l3.76,3.75l0,-7.5m0,15l-3.76,3.75l3.76,3.75l0,-7.5m-6.58,-119.07l3.76,-3.77l-7.51,0l3.75,3.75m-15.02,0.02l3.74,-3.77l-7.52,0l3.78,3.77m-15.04,0l3.76,-3.77l-7.52,0l3.76,3.75m-15.04,0.02l3.76,-3.77l-7.51,0l3.75,3.75m-15.03,0.02l3.76,-3.77l-7.52,0l3.77,3.77m-15.04,0l3.74,-3.77l-7.5,0l3.76,3.77m77.98,137.82l0.94,0.94l2.82,0l0,-4.7l-3.76,3.76m-15.03,0l0.94,0.94l7.52,0l0.94,-0.94l-4.7,-4.69l-4.7,4.69m-15.03,0l0.94,0.94l7.51,0l0.94,-0.94l-4.7,-4.69l-4.7,4.69m-15.03,0l0.94,0.94l7.52,0l0.94,-0.94l-4.7,-4.69l-4.7,4.69m-15.04,0l0.95,0.94l7.52,0l0.93,-0.94l-4.7,-4.69l-4.7,4.69m-15.02,0l0.93,0.94l7.52,0l0.94,-0.94l-4.7,-4.69l-4.7,4.69m-15.03,0l0.94,0.94l7.52,0l0.94,-0.94l-4.7,-4.69l-4.7,4.69"/>
   </g>
  </g>
 </g>
</svg>